<svg xmlns="http://www.w3.org/2000/svg" viewBox="0 0 405.1 194.37"><defs><style>.cls-1{fill:#fff;}.cls-2{fill:none;stroke:#fff;stroke-miterlimit:10;}</style></defs><g id="Layer_2" data-name="Layer 2"><g id="Layer_1-2" data-name="Layer 1"><path class="cls-1" d="M48,32.35a7.73,7.73,0,0,1-4.5,1.76A8.83,8.83,0,0,1,44.8,39.2a7.32,7.32,0,0,1-2.71,6,10.51,10.51,0,0,1-6.87,2.2,15.65,15.65,0,0,1-3.13-.29C30,47.23,29,48,29,49.54a2,2,0,0,0,1,1.86,7.25,7.25,0,0,0,3.35.59H38.8c2.64,0,4.6.53,5.89,1.61s1.93,2.92,1.93,5.52a9.49,9.49,0,0,1-1.4,5,9.69,9.69,0,0,1-4,3.64A13.66,13.66,0,0,1,35,69.15q-5.52,0-8.14-1.67a5,5,0,0,1-2.61-4.4,4,4,0,0,1,1.27-2.93A4.69,4.69,0,0,1,29,58.88a15.64,15.64,0,0,1,1.81.19,5.39,5.39,0,0,0-1.52,3.82,5.16,5.16,0,0,0,1.47,3.66c1,1,2.58,1.58,4.79,1.57A11.77,11.77,0,0,0,40.67,67a8.78,8.78,0,0,0,3.5-2.86,6.3,6.3,0,0,0,1.22-3.62,3.36,3.36,0,0,0-1.32-3c-.88-.6-2.45-.9-4.7-.9h-6a8.28,8.28,0,0,1-5.17-1.29,4.7,4.7,0,0,1-1.73-4,5,5,0,0,1,1-3.1A4.43,4.43,0,0,1,30,46.51q-4.26-1.82-4.26-7.33a7.43,7.43,0,0,1,2.69-6.07,10.3,10.3,0,0,1,6.75-2.2q5.13,0,7.43,2.16a4,4,0,0,0,2-.91,2,2,0,0,0,.69-1.49,1.58,1.58,0,0,0-.44-1.2,1.5,1.5,0,0,0-1-.41,2.6,2.6,0,0,1,.81-1.89,2.64,2.64,0,0,1,1.93-.8,2.77,2.77,0,0,1,2,.73,2.54,2.54,0,0,1,.78,2A4.39,4.39,0,0,1,48,32.35ZM40.2,38A7.42,7.42,0,0,0,39,33.35a4.44,4.44,0,0,0-3.74-1.61q-4.84,0-4.84,6.2v2.41a7.71,7.71,0,0,0,1.19,4.55,4.22,4.22,0,0,0,3.65,1.66A4.41,4.41,0,0,0,39,44.9a7.48,7.48,0,0,0,1.23-4.55Z"/><path class="cls-1" d="M51.64,56.68v-1l3.67-.49V19l-3.67-.49v-1H60.2V55.21l3.42.49v1Z"/><path class="cls-1" d="M72.4,55.41a6.55,6.55,0,0,1-2-5.23V32.82L67,32.35v-1h8.31V50.08a6.65,6.65,0,0,0,1,3.91,3.67,3.67,0,0,0,3.18,1.42,7.38,7.38,0,0,0,4.33-1.49,17,17,0,0,0,3.69-3.69V32.82l-3.42-.47v-1h8.31V55.21l3.42.49v1H87.48V52a12.87,12.87,0,0,1-4.23,3.81A10.79,10.79,0,0,1,78,57.17,8.19,8.19,0,0,1,72.4,55.41Z"/><path class="cls-1" d="M104.76,55.55q-1.94-1.61-1.93-5.13V32.82l-3.47-.47v-1h3.47v-4l4.89-1.23v5.23h6.35v1l-6.35.49V50.35q0,5.19,3.72,5.19a4.71,4.71,0,0,0,1.49-.25,5.59,5.59,0,0,0,1.12-.49,2.83,2.83,0,0,0,.51-.34l.64.78a7.68,7.68,0,0,1-5.28,2A7.82,7.82,0,0,1,104.76,55.55Z"/><path class="cls-1" d="M123.9,55.53a12,12,0,0,1-4.64-4.62,14.81,14.81,0,0,1,0-13.76,12,12,0,0,1,4.55-4.6,12.62,12.62,0,0,1,6.38-1.64,11.08,11.08,0,0,1,5.52,1.37,9.94,9.94,0,0,1,3.82,3.79,11.45,11.45,0,0,1,1.41,5.55H123v4.84a11.66,11.66,0,0,0,1.93,7,6.49,6.49,0,0,0,5.6,2.66,9.88,9.88,0,0,0,6-1.9,7.81,7.81,0,0,0,3.17-4.94h1.13a9.25,9.25,0,0,1-3.47,5.77,10.87,10.87,0,0,1-6.8,2.15A13.26,13.26,0,0,1,123.9,55.53ZM135.54,40.4q0-4.26-1.32-6.33A4.52,4.52,0,0,0,130.11,32a6.09,6.09,0,0,0-5.08,2.3A10.68,10.68,0,0,0,123,40.4Z"/><path class="cls-1" d="M145.66,55.7l3.42-.49V32.82l-3.42-.47v-1H154v5.28a14.6,14.6,0,0,1,4.25-4.18,9.79,9.79,0,0,1,5.28-1.54,8.19,8.19,0,0,1,5.55,1.76,6.59,6.59,0,0,1,2,5.24v17.3l3.42.49v1H163.26v-1l2.93-.49V38a6.56,6.56,0,0,0-1-3.93,3.68,3.68,0,0,0-3.17-1.4,6.92,6.92,0,0,0-4.36,1.68,17.33,17.33,0,0,0-3.69,4V55.21l2.93.49v1H145.66Z"/><path class="cls-1" d="M191.32,55.7l3.42-.49V32.82l-3.42-.47v-1h3.42v-4.1a12.8,12.8,0,0,1,1.91-7.43c1.27-1.83,3.43-2.74,6.5-2.74A7.8,7.8,0,0,1,208,18.47a4.47,4.47,0,0,1,1.88,3.79,3.5,3.5,0,0,1-.81,2.4,2.74,2.74,0,0,1-2.17.93,2.94,2.94,0,0,1-2.15-.93,3,3,0,0,1-.93-2.15,2.18,2.18,0,0,0,1.66-2.3,1.9,1.9,0,0,0-.66-1.44,2.24,2.24,0,0,0-1.59-.62,2.76,2.76,0,0,0-2.71,1.79,15,15,0,0,0-.81,5.79v5.62H206v1l-6.36.49V55.21l5.82.49v1H191.32Z"/><path class="cls-1" d="M209.41,55.7l3.42-.49V32.82l-3.42-.47v-1h8.31v3.77c2.05-2.8,4.37-4.21,6.94-4.21a5.74,5.74,0,0,1,3.28,1,3.08,3.08,0,0,1,1.41,2.71,2.88,2.88,0,0,1-2.75,3h-.25a3.11,3.11,0,0,1-2.57-1.27,2.31,2.31,0,0,0,.54-1.47,1.73,1.73,0,0,0-.56-1.34,2.18,2.18,0,0,0-1.49-.51,3.21,3.21,0,0,0-2.11,1,16.34,16.34,0,0,0-2.44,3V55.21l3.91.49v1H209.41Z"/><path class="cls-1" d="M239.13,55.53a12,12,0,0,1-4.64-4.62,14.81,14.81,0,0,1,0-13.76,12.07,12.07,0,0,1,4.48-4.6,12.62,12.62,0,0,1,6.38-1.64,11.08,11.08,0,0,1,5.52,1.37,9.94,9.94,0,0,1,3.82,3.79,11.57,11.57,0,0,1,1.42,5.55h-18v4.84a11.6,11.6,0,0,0,1.94,7,6.47,6.47,0,0,0,5.59,2.66,9.88,9.88,0,0,0,6-1.9,7.83,7.83,0,0,0,3.18-4.94H256a9.25,9.25,0,0,1-3.47,5.77,10.81,10.81,0,0,1-6.8,2.15A13.24,13.24,0,0,1,239.13,55.53ZM250.77,40.4q0-4.26-1.32-6.33A4.52,4.52,0,0,0,245.34,32a6.09,6.09,0,0,0-5.08,2.3,10.83,10.83,0,0,0-2.06,6.11Z"/><path class="cls-1" d="M268,55.53a12,12,0,0,1-4.65-4.62,14.75,14.75,0,0,1,0-13.76,12.08,12.08,0,0,1,4.54-4.6,12.62,12.62,0,0,1,6.38-1.64,11.12,11.12,0,0,1,5.53,1.37,9.84,9.84,0,0,1,3.81,3.79,11.57,11.57,0,0,1,1.42,5.55h-18v4.84a11.59,11.59,0,0,0,1.93,7,6.49,6.49,0,0,0,5.6,2.66,9.81,9.81,0,0,0,6-1.9,7.83,7.83,0,0,0,3.18-4.94h1.12a9.14,9.14,0,0,1-3.47,5.77,10.85,10.85,0,0,1-6.79,2.15A13.25,13.25,0,0,1,268,55.53ZM279.66,40.4q0-4.26-1.32-6.33A4.52,4.52,0,0,0,274.23,32a6.1,6.1,0,0,0-5.08,2.3,10.75,10.75,0,0,0-2,6.11Z"/><path class="cls-1" d="M31.4,116.35a12.05,12.05,0,0,1-4.57-4.64,14,14,0,0,1-1.68-6.87A13.66,13.66,0,0,1,26.83,98a12.21,12.21,0,0,1,4.57-4.62,13.31,13.31,0,0,1,12.81,0A12,12,0,0,1,48.78,98a13.57,13.57,0,0,1,1.69,6.85,13.83,13.83,0,0,1-1.69,6.87,11.85,11.85,0,0,1-4.57,4.64A13.31,13.31,0,0,1,31.4,116.35Zm11.86-2.08a12,12,0,0,0,1.83-7v-4.92a11.92,11.92,0,0,0-1.83-7,7,7,0,0,0-9.84-1.06,7.08,7.08,0,0,0-1.06,1.06,11.86,11.86,0,0,0-1.84,7v4.89a12,12,0,0,0,1.84,7,7,7,0,0,0,9.76,1.14,7.23,7.23,0,0,0,1.14-1.14Z"/><path class="cls-1" d="M55.36,116.48l3.42-.49V93.6l-3.42-.49v-1h8.31v5.28a14.72,14.72,0,0,1,4.25-4.18,9.79,9.79,0,0,1,5.28-1.54,8.2,8.2,0,0,1,5.55,1.77,6.49,6.49,0,0,1,2,5.23V116l3.42.49v1H73v-1L75.9,116V98.78a6.56,6.56,0,0,0-1-3.93,3.71,3.71,0,0,0-3.18-1.39,6.93,6.93,0,0,0-4.33,1.63,17.76,17.76,0,0,0-3.69,4V116l2.93.49v1H55.36Z"/><path class="cls-1" d="M104,116.35a5.92,5.92,0,0,1-2-4.86,6.73,6.73,0,0,1,3.86-6.53,19.65,19.65,0,0,1,9-1.93h3.28V99.26a10.71,10.71,0,0,0-.57-3.93,3.48,3.48,0,0,0-1.73-2,7.53,7.53,0,0,0-3.18-.56,5.45,5.45,0,0,0-3.42.9A3,3,0,0,0,108,96.09,1.79,1.79,0,0,0,109.4,98a2.94,2.94,0,0,1-.93,2.15,3,3,0,0,1-2.2.93,3.12,3.12,0,0,1-2.2-.76,3,3,0,0,1-.83-2.32,5.14,5.14,0,0,1,2.84-4.54,13.41,13.41,0,0,1,7.09-1.72q9.78,0,9.77,8.51v14a2.54,2.54,0,0,0,.47,1.64,1.86,1.86,0,0,0,2.63,0l0,0a2.24,2.24,0,0,0,.49-1.54h1a3.42,3.42,0,0,1-1.1,2.69,4.47,4.47,0,0,1-3.06,1,5.68,5.68,0,0,1-3.79-1.3,5.11,5.11,0,0,1-1.58-4,8.79,8.79,0,0,1-3.6,3.91,10.36,10.36,0,0,1-5.35,1.42A7.85,7.85,0,0,1,104,116.35Zm10.53-1.29a6.9,6.9,0,0,0,2.37-2.28,7.91,7.91,0,0,0,1.18-3.59V104.1h-3.28q-4,0-6,1.79a6.4,6.4,0,0,0-2,5A4.9,4.9,0,0,0,108,114.7a5.47,5.47,0,0,0,3.72,1.13,5.57,5.57,0,0,0,2.73-.81Z"/><path class="cls-1" d="M187.15,91.8c3.06,0,1.58,8.94,1.37,11.53a27.6,27.6,0,0,0-.11,7.86c.22,1.21.66,2.58,1.7,2.74.06,0,.17.06.22.06h.17c.11.05.22,0,.38,0a11.82,11.82,0,0,0,5.27-3.9,61,61,0,0,0,6.76-9.72c.41-.68,1.1-.07,1.1.49a64.68,64.68,0,0,1-7,9.83,12.5,12.5,0,0,1-5.33,4,1.41,1.41,0,0,1-.54.11h-.94c-.11,0-.16,0-.27,0l-.22-.06h-.17c-3.09-1-2.15-8-1.86-11.43.07-1.78,1-11-.94-10.32-1.1.12-2.19,1.34-2.85,2.09-3.32,3.73-5.76,8.76-8,13.51a.75.75,0,0,1-1,.29.74.74,0,0,1-.39-.73c.68-6.42,1.62-12.78,2.69-18.89-3.64,3.88-7.57,7.52-11.48,11.14l-9.12,8.3c-1.48,1.37-3,2.74-4.39,4.17,2,2,4.56,4.28,4.56,8.18v.44a8.05,8.05,0,0,1-4.51,6.15c-2.44,1.22-5.91,1.6-7.79-.55a4.87,4.87,0,0,1-.88-2.41v-.83c.09-.47.11-1,.22-1.42v-.17l0-.11a14.83,14.83,0,0,1,3.3-5.33c1.1-1.26,2.25-2.47,3.4-3.62-2.34-2.35-5.14-4.23-7.25-6.87a7.39,7.39,0,0,1-2-4.61v-.49l.06-.39v-.33l0-.11c.88-3.5,3.89-5.93,6.65-7.47a18.13,18.13,0,0,1,6-2.19c2.27-.34,4.65.16,5.71,1.48a5,5,0,0,1,.49.71v.06c.52.65-.59,1.53-1.1.77,0,0,0-.06,0-.06-.83-1.59-2.91-1.75-4.78-1.48-5,.86-10,4-11.48,8.57v.93a5.79,5.79,0,0,0,1.65,3.68c2,2.59,4.75,4.54,7.08,6.87,1.48-1.43,3-2.81,4.45-4.18l9.17-8.24c4.22-3.83,8.45-7.78,12.3-12A78.44,78.44,0,0,1,182.63,69l1.32-2.8a16,16,0,0,1,3.63-5.22,1.54,1.54,0,0,1,2.18.05h0a3.35,3.35,0,0,1,.44,1.48c.18,3.49-.84,6.41-1.7,9.23l-.5,1.48c-2,6-5.63,10.37-9.39,14.55-1.06,5.41-1.79,11-2.36,16.81A49.48,49.48,0,0,1,183,94.22a6.88,6.88,0,0,1,4-2.47h0ZM155.57,121a6.54,6.54,0,0,0-1.43-4,18.43,18.43,0,0,0-3-3.24c-1.16,1.15-2.31,2.36-3.35,3.62a16.08,16.08,0,0,0-3.08,5.11c-.27,1.44-.25,3.06.49,4,1.44,1.72,4.66,1.09,6.48.11a7,7,0,0,0,3.85-5.27Zm33-59.69c-1,.33-1.7,1.62-2.3,2.52a48.07,48.07,0,0,0-3.85,8.3,95.78,95.78,0,0,0-3.13,11.8,16.51,16.51,0,0,1-.44,2.09,46.62,46.62,0,0,0,6.54-9A39.54,39.54,0,0,0,189,65.35a10.8,10.8,0,0,0,.17-3,1.87,1.87,0,0,0-.33-1.1h-.06Z"/><path class="cls-1" d="M209,103.28c-.06.11-.06.16-.11.27-.81,2.17-2.1,4.43-4.18,5.39a1.11,1.11,0,0,1-.55.22l-.22,0h-.22a2.07,2.07,0,0,1-1.92-1.37,5.77,5.77,0,0,0-.39-1.15,9.82,9.82,0,0,1,1.38-6.1c.14-.21.16-.38.27-.49a.64.64,0,1,1,1.1.66h0a10.34,10.34,0,0,0-1.65,5.82c.08.71.29,1.37,1,1.37h.17l.22,0c1.84,0,3.71-3.29,4.24-4.84a.6.6,0,0,0,.05-.16A6.26,6.26,0,0,1,204,96.42c.3-1.6,1.92-4.46,4.06-2.86,1.12,1,1.65,3,1.65,5a13.44,13.44,0,0,1-.44,3.68c3.49.87,8.21-.75,10.33-1.43.84-.28,2.46-1.28,2.8-.44a.58.58,0,0,1-.33.72c-3.14,1.09-8.14,3.17-13.08,2.19Zm-.5-1.15c.58-2.33.78-6.26-.88-7.64-1.26-.95-2.27,1.32-2.41,2.25a5.34,5.34,0,0,0,1.26,4.07,4.32,4.32,0,0,0,1.65,1.15C208.26,102,208.42,102,208.53,102.13Z"/><path class="cls-1" d="M224.43,107.78a.5.5,0,0,0-.27,0c-5.52-.4-2-10.64-.33-12.58.68-.85,1.93-1.47,2.91-.49,1.57,1.57.56,4-.72,5.1a6,6,0,0,1-3.4,1.38c-.47,2.36-.31,5.13,1.76,5.54a.43.43,0,0,0,.22.06h1.15c5.64-.71,10.13-4,13.62-6.59a.55.55,0,1,1,.66.88,38.65,38.65,0,0,1-5.6,3.51,26.71,26.71,0,0,1-8.19,3.08,8.34,8.34,0,0,1-1,0c-.16,0-.33-.11-.49-.11h-.11a.62.62,0,0,0-.21.27Zm-.71-10.54a20.48,20.48,0,0,0-1,2.85c2,0,5.24-2.61,3.13-4.72a1.1,1.1,0,0,0-.38-.27C225,94.91,224,96.67,223.72,97.24Z"/><path class="cls-1" d="M255,92.9c-1.89-3.31-7.49-3.79-11.42-1.43a7.83,7.83,0,0,0-3.57,4.4,1.4,1.4,0,0,0-.11.49c0,.16-.06.38-.06.49a1.69,1.69,0,0,0,0,.55,14.76,14.76,0,0,0,2.8,7c1,1.64,2.2,3.35,3.29,5.1,1.1-.76,2.2-1.48,3.24-2.14a57.82,57.82,0,0,1,13.29-6,44,44,0,0,1,5.44-1.21c.75-.12,1.06.88.33.88v.06a56.51,56.51,0,0,0-21.58,9.22c1.9,3.17,4,6.9,3.79,12a12.77,12.77,0,0,1-1.71,5.87,16.55,16.55,0,0,1-6.59,6.37c-2.64,1.44-6.32,2.43-9.06.66-1.63-1.06-2.37-3.21-2.08-5.77a9.32,9.32,0,0,1,.6-2.91c2.48-7.24,8-12.31,13.51-16.31-1.94-3.2-4.4-6-5.77-9.66a9.37,9.37,0,0,1-.66-3.13,2.07,2.07,0,0,0,.06-.61c0-.27,0-.44.11-.66a2.44,2.44,0,0,1,.11-.6c1.23-4.45,6.79-7.87,12.47-6.7a7.28,7.28,0,0,1,4.83,3.35c.48.66-.8,1.51-1.26.69ZM236,135.08a11.41,11.41,0,0,0,5.44-1.49A14.48,14.48,0,0,0,248.6,125a8.84,8.84,0,0,0,.5-2.74c.28-4.72-1.81-8.25-3.68-11.21a42,42,0,0,0-10.65,10.82,20.65,20.65,0,0,0-2.81,6.37,12.6,12.6,0,0,0-.22,1.37c-.42,3.4,1.23,5.32,4.23,5.5Z"/><path class="cls-1" d="M266.63,117.06c-.13-7,1.12-14.56,2.26-21.09,1.31-7.57,3-15.1,4.44-20.7.61-1.66.54-1.69,1.09-3.28-8.48,1.06-16.63,2.55-23.56,5.1a22.72,22.72,0,0,0-5,2.36c-.49.38-1-.68-.43-1,7.54-4.53,18.83-5.94,29.21-7.47h.17c.23-.46,1.15-4,1.49-4.35h.11c.05,0,.17-.06.22-.06.33-.16.69.31.69.52a.24.24,0,0,1,.06.11.66.66,0,0,1,.05.28l-1.24,3.33c6.81-.77,14-1.21,19.15-1.26a39.79,39.79,0,0,1,8.85.6c.74.17,1.22.18,1.09.83a.55.55,0,0,1-.65.38h-.06a41.52,41.52,0,0,0-9.17-.82,170.06,170.06,0,0,0-19.66,1.32,16.13,16.13,0,0,0-1.25,3.78,249.49,249.49,0,0,0-5.93,31.74,78.89,78.89,0,0,0-.6,9.72c0,2.44.12,7.14,2.19,7.14.17,0,.28-.06.39-.06a.16.16,0,0,1,.11-.05c.74-.25,1,.91.28,1.15-.25,0-.52.17-.88.17-3.13-.1-3.47-5.1-3.47-8.39Z"/><path class="cls-1" d="M280.56,110.69v-.6c0-.39.06-.77.06-1.15a102.14,102.14,0,0,1,2.3-15.66c.26-.78,1.46-.41,1.21.33a74.58,74.58,0,0,0-2.25,13.18c0,.22-.06.39-.06.55a74.17,74.17,0,0,1,5.83-12.52c1.81-3.15,3.78-6.64,6.48-9.06,1.12-1,3.57-3,5.54-1.32.31.26,1.48,1.17.77,1.7s-1.1-.61-1.37-.82a2.27,2.27,0,0,0-2.53.06,12.66,12.66,0,0,0-3.13,2.8,59,59,0,0,0-8.78,15c-.61,1.32-1.21,2.69-1.71,4.07s-.82,2.8-1.37,4.17l.05.06a.44.44,0,0,1-.49.39h-.05a.46.46,0,0,1-.39-.38c0-.11-.05-.28-.05-.39a1.43,1.43,0,0,0-.06-.4Z"/><path class="cls-1" d="M302.46,105.7a20.08,20.08,0,0,1,.77-5.17c.13-.78,1.48-.47,1.21.33a13.47,13.47,0,0,0-.94,4.78c0,2.79,1.17,4.8,4.34,4.45s5.89-2,8.13-3.35a43.59,43.59,0,0,0,7.85-6.48.54.54,0,0,1,.77.77A38.66,38.66,0,0,1,311,110.14a18.35,18.35,0,0,1-3,.77c-3.56.79-5.57-1.94-5.57-5.21Zm4.83-16.86A1.32,1.32,0,1,1,306,90.16h0A1.32,1.32,0,0,1,307.29,88.84Z"/><path class="cls-1" d="M323.11,107.45l-.05-.17c0-6.21,1.93-13,3.51-17.19.23-.69.37-1.29,1-1s.3.76.05,1.43a76,76,0,0,0-3.24,16.36l.77-.77c2.77-2.88,5.35-6.2,8.51-8.84,1.66-1.43,5-3.64,7.64-1.64,2.93,1.63,3.5,6,5.05,8.84.75,1.21,1.63,2.34,3.52,2,3.44-.83,5.81-3.91,7.68-6.1.4-.55,1.3.16.83.72a25.06,25.06,0,0,1-6.26,5.49,5.7,5.7,0,0,1-4,.88c-3.94-1.58-3.95-7.18-6.59-10a3.85,3.85,0,0,0-4.88-.94,10.31,10.31,0,0,0-2.48,1.65c-3.07,2.53-5.71,5.82-8.34,8.79-.54.62-1.09,1.45-2.09,1.59-.11,0-.27,0-.38-.11a1.05,1.05,0,0,1-.39-.55v-.16a.43.43,0,0,0,.14-.23Z"/><path class="cls-1" d="M367.89,94.27c-2.8,0-4.86,1.62-6.53,3.08s-3.49,3.58-3.68,6.26v.22a.18.18,0,0,1,.05.16c.06.11.06.17.11.17.86.43,2.37-.58,3.08-.94a77.21,77.21,0,0,0,14.38-11c.52-.51,1.1,0,1.1.55a188.59,188.59,0,0,1-3.9,25c-.11.38-.16.77-.27,1.15,6.81.8,12.67,2.59,17.35,5.71.61.37,0,1.31-.6.94-4.54-3.08-10.39-4.77-17-5.55-.59,2.35-1.17,4.71-1.93,7l-1,3c-.33,1-.71,2-1.09,3l-1.16,3c-.63,1.46-1.25,2.93-1.92,4.34l-2.14,4.29c-.5.93-1,1.81-1.59,2.74s-1,1.89-1.6,2.75l-1.75,2.63c-4.79,6.6-10.09,13.5-19.55,15.49-12,2.52-21.39-6.66-17.52-19.66a14.48,14.48,0,0,1,1-3,49.64,49.64,0,0,1,8.79-13.34,44.9,44.9,0,0,1,22-12.2,54.84,54.84,0,0,1,12.63-1.48c2,0,3.9.11,5.88.28a162.64,162.64,0,0,0,3.9-24.33,64.54,64.54,0,0,1-13.4,10,6.92,6.92,0,0,1-3.41,1.16c-.85-.17-1.7-.59-1.7-1.6v-.44a11.49,11.49,0,0,1,4.06-7.14c1.85-1.62,4.25-3.46,7.47-3.46,1,0,3.7.77,3,1.87a.69.69,0,0,1-.94.17h0a3.38,3.38,0,0,0-2.08-.82ZM331.48,133a42.52,42.52,0,0,0-7.3,10.05,28.3,28.3,0,0,0-2.14,5,16.43,16.43,0,0,0,.49,12.74c2.49,4.83,8.12,8,15.65,6.54a23.17,23.17,0,0,0,10.82-5.6,50.07,50.07,0,0,0,4.06-4.18c.68-1,1.44-1.86,2.15-2.8l.93-1.26a55,55,0,0,0,3.4-5.27l.77-1.38c1.22-2.29,2.5-4.59,3.68-7,1.38-3.33,2.87-6.58,4.07-10.16l1-3c.74-2.21,1.26-4.42,1.87-6.75a47.63,47.63,0,0,0-5.6-.28c-14.82.06-26.45,5.52-33.85,13.35Z"/><path class="cls-1" d="M326.29,24a.49.49,0,0,0,0-.24v-.06a.38.38,0,0,0-.12-.16.41.41,0,0,0-.2-.17.37.37,0,0,0-.21,0,.34.34,0,0,0-.2,0,.66.66,0,0,0-.17.12.52.52,0,0,0-.12.17v.13a.62.62,0,0,0,0,.27l.07.12a.68.68,0,0,0,.21.17h.14a.34.34,0,0,0,.2,0H326a.33.33,0,0,0,.14-.1.3.3,0,0,0,.11-.14Z"/><path class="cls-1" d="M331.35,25.54a.48.48,0,0,0,0-.29l-.08-.13a.57.57,0,0,0-.24-.19.66.66,0,0,0-.44,0,.7.7,0,0,0-.31.31v.15a.71.71,0,0,0,0,.29l.08.13a.6.6,0,0,0,.23.19.45.45,0,0,0,.23,0,.41.41,0,0,0,.22,0,.44.44,0,0,0,.18-.12.5.5,0,0,0,.13-.19Z"/><path class="cls-1" d="M339.48,24.8a.64.64,0,0,0-.32-.33.61.61,0,0,0-.46,0,.62.62,0,0,0-.32.32.6.6,0,0,0,.78.79.5.5,0,0,0,.19-.13.48.48,0,0,0,.14-.2A.58.58,0,0,0,339.48,24.8Z"/><path class="cls-1" d="M341.13,21a.42.42,0,0,0,0-.31l-.06-.12a.58.58,0,0,0-.23-.18.56.56,0,0,0-.72.29.54.54,0,0,0,0,.43l.07.12a.39.39,0,0,0,.17.14.5.5,0,0,0,.2.08.37.37,0,0,0,.21,0,.34.34,0,0,0,.19-.09.58.58,0,0,0,.18-.23Z"/><path class="cls-1" d="M349.52,22.62a.54.54,0,1,0,.3.7A.53.53,0,0,0,349.52,22.62Z"/><path class="cls-1" d="M355.44,30.87a.58.58,0,0,0-.23-.18.66.66,0,0,0-.28,0,.55.55,0,0,0-.25.1.52.52,0,0,0-.17.22.61.61,0,0,0,0,.27.51.51,0,0,0,.33.42.48.48,0,0,0,.29,0,.58.58,0,0,0,.44-.33A.57.57,0,0,0,355.44,30.87Z"/><path class="cls-1" d="M348.71,28.16a.61.61,0,0,0,0-.27.28.28,0,0,0-.08-.15.62.62,0,0,0-.88-.13.62.62,0,0,0-.24.42.59.59,0,0,0,.12.46l.11.11a.57.57,0,0,0,.22.11.36.36,0,0,0,.25,0,.73.73,0,0,0,.41-.23A.62.62,0,0,0,348.71,28.16Z"/><path class="cls-1" d="M361,37v-.11l-.08-.13-.1-.11a.62.62,0,0,0-.22-.1.51.51,0,0,0-.3,0,.35.35,0,0,0-.14.06.27.27,0,0,0-.12.09.52.52,0,0,0-.14.19v.45l.08.13.1.11a.37.37,0,0,0,.22.1h.15a.41.41,0,0,0,.22,0h.1A1,1,0,0,0,361,37Z"/><path class="cls-1" d="M366.55,39a.5.5,0,0,0,0-.38.46.46,0,0,0-.26-.27.5.5,0,0,0-.38,0,.51.51,0,0,0-.27.27.54.54,0,0,0-.08.37.49.49,0,0,0,.29.39.51.51,0,0,0,.49-.06A.64.64,0,0,0,366.55,39Z"/><path class="cls-1" d="M363.33,43.26a.61.61,0,0,0,0-.27l-.07-.11a.58.58,0,0,0-.21-.17.34.34,0,0,0-.2,0,.43.43,0,0,0-.35.14.3.3,0,0,0-.12.17v.13a.57.57,0,0,0,0,.26l.07.12a.65.65,0,0,0,.21.16.55.55,0,0,0,.4,0,.36.36,0,0,0,.16-.11.48.48,0,0,0,.12-.16Z"/><path class="cls-1" d="M369.07,46a.81.81,0,0,0,0-.38l-.1-.16a.73.73,0,0,0-.31-.24.58.58,0,0,0-.29-.06.66.66,0,0,0-.28,0,.63.63,0,0,0-.23.16.53.53,0,0,0-.17.25l-.06.19a.82.82,0,0,0,.05.38l.1.16a.7.7,0,0,0,.3.24.72.72,0,0,0,.29.06.71.71,0,0,0,.29,0,.63.63,0,0,0,.23-.16.51.51,0,0,0,.17-.24Z"/><path class="cls-1" d="M319.6,26.18A.65.65,0,1,0,320,27a.66.66,0,0,0-.35-.86Z"/><path class="cls-1" d="M324.39,27.6a.74.74,0,0,0,0-.21l-.06-.09a.39.39,0,0,0-.17-.14.43.43,0,0,0-.16,0,.43.43,0,0,0-.16,0,.3.3,0,0,0-.13.09.28.28,0,0,0-.1.14v.1a.41.41,0,0,0,0,.22l.05.09a.49.49,0,0,0,.18.14.22.22,0,0,0,.16,0h.16a.38.38,0,0,0,.13-.09.42.42,0,0,0,.09-.14Z"/><path class="cls-1" d="M354.69,24.93a.54.54,0,1,0,.29.71.54.54,0,0,0-.29-.71Z"/><path class="cls-1" d="M344.3,23.86a.54.54,0,0,0-.41,1h0a.53.53,0,0,0,.7-.3A.52.52,0,0,0,344.3,23.86Z"/><path class="cls-1" d="M346.19,19.22a.51.51,0,1,0,.23.58A.51.51,0,0,0,346.19,19.22Z"/><path class="cls-1" d="M322.29,23.05a.41.41,0,1,0,.22.54.41.41,0,0,0-.22-.54Z"/><path class="cls-1" d="M330.45,22.68a.43.43,0,0,0,0-.16l-.05-.08-.06-.07a.35.35,0,0,0-.14-.06h-.27a.16.16,0,0,0-.08.06.2.2,0,0,0-.08.12v.36l.07.07A.22.22,0,0,0,330,23h.24l.1-.07a.28.28,0,0,0,.08-.11Z"/><path class="cls-1" d="M368,42.75a.57.57,0,0,0,0-.26l-.07-.11a.39.39,0,0,0-.21-.17.34.34,0,0,0-.2,0h-.19a.61.61,0,0,0-.28.27v.14a.57.57,0,0,0,0,.26l.06.11a.68.68,0,0,0,.21.17.55.55,0,0,0,.4,0,.36.36,0,0,0,.16-.11.48.48,0,0,0,.12-.16Z"/><path class="cls-1" d="M364,39.87v-.1a.37.37,0,0,0-.08-.18.35.35,0,0,0-.33-.13h-.14a.16.16,0,0,0-.08.06.38.38,0,0,0-.09.13v.2a.38.38,0,0,0,0,.15.16.16,0,0,0,.06.08.38.38,0,0,0,.13.09h.2l.15-.05a.27.27,0,0,0,.08-.07.27.27,0,0,0,.09-.12Z"/><path class="cls-1" d="M357.46,28.28a.29.29,0,0,0,0-.13.31.31,0,0,0-.09-.11l-.08-.07a.47.47,0,0,0-.39-.09.4.4,0,0,0-.22.22.39.39,0,0,0,0,.3.37.37,0,0,0,.13.17.46.46,0,0,0,.19.08h.21a.24.24,0,0,0,.12,0h.08a.5.5,0,0,0,.08-.12.37.37,0,0,0,0-.25Z"/><path class="cls-1" d="M352.58,28.43a.45.45,0,0,0-.16-.28,1.15,1.15,0,0,0-.25-.12.61.61,0,0,0-.27,0,.39.39,0,0,0-.33.44.51.51,0,0,0,.07.17.86.86,0,0,0,.19.19,1.43,1.43,0,0,0,.27.09h.27a.44.44,0,0,0,.21-.43Z"/><path class="cls-1" d="M369.39,49.75l.9-.67h.07V49c3.33-7.65-7-15.48-8.76-16.77a3.51,3.51,0,0,0,.75-1.38c.31-1.42-.73-3.06-1.51-4.16A23.55,23.55,0,0,0,340.32,17a11.39,11.39,0,0,0-5,1.13,3.16,3.16,0,0,0-1.55,2.48c-2.31-.43-15.06-2.38-18.19,5.3v.08l.14,1.06c-12.16,4-14.87,17-14.9,17.12-.6,3.11.55,4.83,1.63,5.72a3.31,3.31,0,0,0,2.11.76,3.06,3.06,0,0,0,.9-.13l12.87-3.54c.08.49.62,2.65,3.66,2.73l6.77-.44c.19.21.4.41.6.61.66.66,1.23,1.41,1.89,2.08A13.08,13.08,0,0,0,336,55a14.44,14.44,0,0,0,5.82.9,28,28,0,0,0,2.9-.06L349,61a3.75,3.75,0,0,0,2.69,1.25,3.09,3.09,0,0,0,1.54-.41l6.26,11.37A3.35,3.35,0,0,0,362,74.93h.52c1.35,0,3.12-.56,4.7-2.84,0-.08,7.95-10.74,2.15-22.34Zm-64.15,0a2.63,2.63,0,0,1-2.37-.5c-.93-.77-1.93-2.27-1.39-5,0-.13,2.65-12.66,14.3-16.55l2.43,18.52Zm16.7-.84c-2.73-.07-3-2.1-3-2.21L316.27,26c3-7,15.27-5.16,17.39-4.79a5,5,0,0,1-.14.92c-.89,4.8-1.77,9.61-2.95,14.35-.67,2.7-1.38,5.39-2,8.11-.26,1.18-.77,2.7-.29,3.91Zm20.78,6.32a16.41,16.41,0,0,1-6.56-.81,17.62,17.62,0,0,1-6.89-5.59c-.83-1-.43-2.34-.18-3.53.44-2.11,1-4.21,1.5-6.3.93-3.69,1.81-7.37,2.47-11.12.3-1.72.66-3.43,1-5.14a14.8,14.8,0,0,1,.59-3.16c.54-1.2,2.39-1.61,3.5-1.81a22.79,22.79,0,0,1,20.13,6.73,15.05,15.05,0,0,1,3.1,4.2,3.14,3.14,0,0,1-.56,3.52c-.57.78-1.12,1.58-1.68,2.38-2.19,3.17-4.47,6.28-6.52,9.55-1.13,1.79-2.22,3.61-3.34,5.4A31,31,0,0,1,346,54.43c-1,1-2,.75-3.25.8Zm6.72,5.3-4-4.87a6.11,6.11,0,0,0,2.15-2.31c1.4-2.08,2.7-4.22,4-6.34,2.44-4,5.08-7.72,7.72-11.53.62-.91,1.25-1.82,1.9-2.71,1.62,1.18,11.55,8.78,8.57,15.85L353.05,61.09C353,61.15,351.37,62.41,349.44,60.53ZM366.63,71.7c-1.6,2.32-3.37,2.66-4.58,2.53a2.63,2.63,0,0,1-2-1.36l-6.3-11.42,15.08-11.27C374.31,61.28,366.72,71.59,366.63,71.7Z"/><path class="cls-1" d="M383.27,117.35a5.12,5.12,0,0,1-2.57-4.44,5,5,0,0,1,.69-2.59,5.29,5.29,0,0,1,1.88-1.88,5.16,5.16,0,0,1,7.73,4.47,5,5,0,0,1-.69,2.57,5.11,5.11,0,0,1-1.88,1.87A5.17,5.17,0,0,1,383.27,117.35Zm4.93-.39a4.71,4.71,0,0,0,1.68-6.41,4.54,4.54,0,0,0-1.68-1.69,4.72,4.72,0,0,0-4.71,0,4.43,4.43,0,0,0-1.69,1.69,4.7,4.7,0,0,0,1.69,6.41A4.77,4.77,0,0,0,388.2,117Zm-1-1a1.11,1.11,0,0,1-.34-.73l-.16-1.08a1.45,1.45,0,0,0-.35-.81,1.22,1.22,0,0,0-.9-.28H385v2.64l.74.11v.3h-2.52v-.3l.75-.11v-5.6l-.75-.12v-.3h2.75a3.43,3.43,0,0,1,1.91.41,1.43,1.43,0,0,1,.59,1.25c0,.92-.68,1.45-2,1.6v0a1.58,1.58,0,0,1,1.5,1.43l.11.69a2.42,2.42,0,0,0,.1.45.23.23,0,0,0,.23.14.79.79,0,0,0,.5-.24l.21.24a1.42,1.42,0,0,1-1.1.49,1.16,1.16,0,0,1-.81-.18Zm-1.47-3.23c1,0,1.54-.45,1.54-1.35v-.16c0-.81-.51-1.21-1.54-1.21H385v2.72Z"/><path class="cls-2" d="M302.44,177.64H404.6V.5H.5V177.64H16.28"/><path class="cls-1" d="M234.22,164.24v-.74q0-5.9-6.67-5.89h-2.77v12.88h4a5.17,5.17,0,0,0,4-1.58A6.73,6.73,0,0,0,234.22,164.24Z"/><path class="cls-1" d="M175.76,172.27a6.55,6.55,0,0,0-4.71-1.6H165.7v13.59l5.35,0a6.15,6.15,0,0,0,4.69-1.75,7,7,0,0,0,1.67-5v-.39A6.43,6.43,0,0,0,175.76,172.27Z"/><path class="cls-1" d="M174,168.17a6.27,6.27,0,0,0,1.53-4.54v-.22q0-5.81-6.18-5.81H165.7v12.17h3.94A5.79,5.79,0,0,0,174,168.17Z"/><path class="cls-1" d="M25.25,147.74v46.63H293.46V147.74Zm58.31,9.75-3.27.5v25.83l3.27.53v.74H73.12v-.74l3.27-.53V159.05l-10.5,26.4h-.64L54.67,158v24.94l3.41,1.42v.74H50.49v-.74l3.33-1.42V158l-3.26-.5v-.78H58.4l8.91,22.78,9.08-22.78h7.17Zm28.51,27.56-22.1,0v-.74l3.27-.53V158l-3.27-.5v-.78h21.36v8.12h-1l-2.73-7.23H97.1v12.75h4.61l2.1-5.15h.92v11.22h-.92l-2.13-5.22H97.1v13h11.14l2.91-7.8h.92Zm40.06-27.56-3.26.5v25.83l3.26.53v.74H141.71v-.74l3.27-.53V159.05l-10.51,26.4h-.64L123.26,158v24.94l3.41,1.42v.74h-7.6v-.74l3.34-1.42V158l-3.27-.5v-.78H127l8.9,22.78,9.1-22.78h7.16Zm26.61,25.68a13.83,13.83,0,0,1-7.72,1.88H158.53v-.7l3.26-.53V158l-3.26-.5v-.78h10.82a21.27,21.27,0,0,1,6.1.71,6.08,6.08,0,0,1,3.3,2.15,6.22,6.22,0,0,1,1,3.77q0,5.11-6.45,6.53v.18a12,12,0,0,1,6.12,2.34,6.22,6.22,0,0,1,2.18,5A6.43,6.43,0,0,1,178.74,183.17Zm31.87,1.88-22.1,0v-.74l3.27-.53V158l-3.27-.5v-.78h21.36v8.12h-1l-2.73-7.23h-10.5v12.75h4.61l2.09-5.15h.93v11.22h-.93l-2.12-5.22h-4.58v13h11.14l2.91-7.8h.92Zm30-.1a5.67,5.67,0,0,1-2.37.5,4.14,4.14,0,0,1-3-1,5.62,5.62,0,0,1-1.35-3.26l-.68-4.76a6.72,6.72,0,0,0-1.65-3.78,5.3,5.3,0,0,0-4-1.36h-2.77v12.49l3.26.53v.74H217.64v-.74l3.27-.53V158l-3.27-.5v-.78h9.94q5.78,0,8.37,1.81a6.23,6.23,0,0,1,2.59,5.5q0,6.1-7.38,7.06v.21a7.8,7.8,0,0,1,4.38,2,7.15,7.15,0,0,1,2.08,4.15l.46,3.06a9.63,9.63,0,0,0,.66,2.69,1.21,1.21,0,0,0,1.15.71,2.36,2.36,0,0,0,1.13-.33,5.38,5.38,0,0,0,1.14-.87l.6.63A6.18,6.18,0,0,1,240.63,185Zm24.12-1.31a9.26,9.26,0,0,1-6.51,2.23,12.61,12.61,0,0,1-6.5-2l-3,1.53H248v-9.1h.78l3.06,6.6a11.31,11.31,0,0,0,6.74,2.09,7.93,7.93,0,0,0,5.16-1.65,5.63,5.63,0,0,0,2-4.63,4.55,4.55,0,0,0-1.31-3.42,9.58,9.58,0,0,0-4.26-2l-5.89-1.52A8.41,8.41,0,0,1,249.6,169a7.21,7.21,0,0,1-1.56-4.66,9.26,9.26,0,0,1,1-4.35,6.85,6.85,0,0,1,2.85-2.94,9,9,0,0,1,4.47-1,14.58,14.58,0,0,1,5.79,1.1l2.59-1.1h.78v7.24h-.78l-2.56-5.18a13.11,13.11,0,0,0-5.78-1.28,7,7,0,0,0-4.86,1.58,5.29,5.29,0,0,0-1.78,4.17,3.8,3.8,0,0,0,1.26,3,9.05,9.05,0,0,0,3.71,1.74l6.35,1.67a8.21,8.21,0,0,1,4.6,2.68c1,1.26,1.5,3.19,1.5,5.76A8,8,0,0,1,264.75,183.64Z"/></g></g></svg>