<?xml version="1.0" encoding="utf-8"?>
<!-- Generator: Adobe Illustrator 25.4.1, SVG Export Plug-In . SVG Version: 6.00 Build 0)  -->
<svg version="1.1" id="Layer_1" xmlns="http://www.w3.org/2000/svg" xmlns:xlink="http://www.w3.org/1999/xlink" x="0px" y="0px"
	 viewBox="0 0 173.7 173.7" style="enable-background:new 0 0 173.7 173.7;" xml:space="preserve">
<style type="text/css">
	.st0{fill:#151E33;stroke:#000000;stroke-miterlimit:10;}
	.st1{fill:#FFFFFF;}
</style>
<rect x="-69" y="-40" class="st0" width="389" height="314"/>
<g id="Layer_2_00000029767967590044474190000016365770374168168579_">
	<g id="Layer_1-2">
		<path class="st1" d="M86.9,4C42.1,4,5.7,41.1,5.7,86.9s36.3,82.9,81.1,82.9S168,132.6,168,86.9S131.7,4,86.9,4z M86.9,166.7
			c-43.1,0-78.1-35.8-78.1-79.9c0-44,35-79.9,78.1-79.9S165,42.8,165,86.9C165,130.9,130,166.7,86.9,166.7z"/>
		<path class="st1" d="M67.9,46.2l0,0.2c0,0.1-0.1,0.2-0.2,0.2c-0.1,0.1-0.1,0.1-0.2,0.2h-0.2c-0.1,0-0.2,0-0.3,0h-0.2
			c-0.1-0.1-0.2-0.2-0.3-0.3l-0.1-0.2c0-0.2,0-0.3,0-0.5v-0.2c0-0.1,0.1-0.2,0.2-0.3c0.1-0.1,0.2-0.2,0.3-0.2c0.1,0,0.2,0,0.3,0
			c0.1,0,0.2,0,0.4,0c0.1,0.1,0.3,0.2,0.3,0.3c0.1,0.1,0.2,0.2,0.2,0.3v0.1C67.9,46,67.9,46.1,67.9,46.2z"/>
		<path class="st1" d="M76.3,48.8v0.3c0,0.1-0.1,0.2-0.2,0.3c-0.1,0.1-0.2,0.2-0.3,0.2c-0.1,0-0.2,0-0.4,0c-0.1,0-0.3,0-0.4,0
			c-0.2-0.1-0.3-0.2-0.4-0.3l-0.1-0.2c0-0.2,0-0.3,0-0.5v-0.2c0-0.1,0.1-0.2,0.2-0.3c0.1-0.1,0.2-0.2,0.3-0.2c0.2-0.1,0.5-0.1,0.7,0
			c0.2,0.1,0.3,0.2,0.4,0.3l0.1,0.2C76.4,48.5,76.4,48.7,76.3,48.8z"/>
		<path class="st1" d="M90,48.3c0,0.1-0.1,0.2-0.2,0.3c-0.1,0.1-0.2,0.2-0.3,0.2c-0.2,0.1-0.5,0.1-0.8,0c-0.5-0.2-0.7-0.8-0.5-1.3
			c0-0.1,0.1-0.2,0.2-0.3c0.1-0.1,0.2-0.2,0.3-0.2c0.2-0.1,0.5-0.1,0.8,0c0.2,0.1,0.4,0.3,0.5,0.5C90.1,47.8,90.1,48.1,90,48.3z"/>
		<path class="st1" d="M92.7,41.2l0,0.2c-0.1,0.1-0.2,0.3-0.3,0.4c-0.1,0.1-0.2,0.1-0.3,0.2c-0.1,0-0.2,0-0.3,0
			c-0.1,0-0.2-0.1-0.3-0.1c-0.1-0.1-0.2-0.1-0.3-0.2L91,41.4v0c-0.2-0.5,0-1,0.5-1.2c0.2-0.1,0.5-0.1,0.7,0c0.2,0.1,0.3,0.2,0.4,0.3
			l0.1,0.2C92.8,40.8,92.8,41,92.7,41.2z"/>
		<path class="st1" d="M107.3,44.8c0,0.1,0,0.2-0.1,0.3c-0.2,0.5-0.7,0.7-1.2,0.5c-0.5-0.2-0.7-0.7-0.5-1.2c0.2-0.5,0.7-0.7,1.2-0.5
			C107.1,44.1,107.3,44.4,107.3,44.8z"/>
		<path class="st1" d="M117,58.3c0,0.4-0.3,0.8-0.8,0.8c-0.2,0-0.3,0-0.5,0c-0.2-0.1-0.3-0.2-0.4-0.3c-0.1-0.1-0.2-0.3-0.2-0.4
			c0-0.2,0-0.3,0-0.5c0.1-0.2,0.2-0.3,0.3-0.4c0.1-0.1,0.3-0.2,0.4-0.2c0.2,0,0.3,0,0.5,0c0.1,0.1,0.3,0.2,0.4,0.3
			C116.9,57.9,117,58.1,117,58.3z"/>
		<path class="st1" d="M105.4,53.2c0,0.2,0,0.4-0.1,0.5c-0.2,0.2-0.4,0.3-0.7,0.4c-0.1,0-0.3,0-0.4,0c-0.1,0-0.3-0.1-0.4-0.2
			l-0.2-0.2c-0.2-0.2-0.2-0.5-0.2-0.8c0-0.3,0.2-0.5,0.4-0.7c0.2-0.2,0.5-0.2,0.8-0.2c0.3,0,0.5,0.2,0.7,0.4
			c0.1,0.1,0.1,0.2,0.1,0.2C105.5,52.9,105.5,53.1,105.4,53.2z"/>
		<path class="st1" d="M126,68.6c0,0.2-0.1,0.4-0.3,0.6h-0.2c-0.1,0-0.2,0-0.4,0c-0.1,0-0.2,0-0.2,0c-0.1,0-0.3-0.1-0.4-0.2
			l-0.2-0.2l-0.1-0.2v-0.8c0.1-0.1,0.1-0.2,0.2-0.3c0.1-0.1,0.1-0.1,0.2-0.2c0.1,0,0.2-0.1,0.2-0.1c0.2,0,0.3,0,0.5,0
			c0.1,0,0.3,0.1,0.4,0.2l0.2,0.2l0.1,0.2V68C126.1,68.2,126.1,68.4,126,68.6z"/>
		<path class="st1" d="M135.3,71.3c-0.1,0.2-0.2,0.4-0.4,0.5c-0.2,0.2-0.5,0.2-0.8,0.1c-0.3-0.1-0.4-0.4-0.5-0.7
			c0-0.2,0-0.4,0.1-0.6c0.1-0.2,0.2-0.4,0.5-0.5c0.2-0.1,0.4-0.1,0.6,0c0.2,0.1,0.4,0.2,0.4,0.5C135.4,70.9,135.4,71.1,135.3,71.3z"
			/>
		<path class="st1" d="M129.9,78.5l0,0.3c0,0.1-0.1,0.2-0.2,0.3c-0.1,0.1-0.2,0.1-0.3,0.2c-0.2,0.1-0.5,0.1-0.7,0
			c-0.1-0.1-0.3-0.2-0.3-0.3l-0.1-0.2c0-0.1,0-0.3,0-0.4v-0.2c0-0.1,0.1-0.2,0.2-0.3c0.2-0.2,0.4-0.2,0.6-0.2c0.1,0,0.2,0,0.3,0
			c0.1,0.1,0.3,0.2,0.4,0.3l0.1,0.2C130,78.2,130,78.4,129.9,78.5z"/>
		<path class="st1" d="M139.5,83.2l0,0.4c-0.1,0.2-0.2,0.3-0.3,0.4c-0.1,0.1-0.2,0.2-0.4,0.3c-0.2,0-0.3,0-0.5,0
			c-0.2,0-0.3,0-0.5-0.1c-0.2-0.1-0.4-0.2-0.5-0.4l-0.2-0.3c-0.1-0.2-0.1-0.4-0.1-0.6l0.1-0.3c0-0.2,0.2-0.3,0.3-0.4
			c0.1-0.1,0.2-0.2,0.4-0.3c0.2-0.1,0.3-0.1,0.5-0.1c0.2,0,0.3,0,0.5,0.1c0.2,0.1,0.4,0.2,0.5,0.4l0.2,0.3
			C139.6,82.8,139.6,83,139.5,83.2z"/>
		<path class="st1" d="M57.2,51.3c-0.2,0.6-0.9,0.8-1.4,0.6c-0.5-0.2-0.8-0.9-0.6-1.4c0.2-0.5,0.9-0.8,1.4-0.6
			C57.2,50.1,57.5,50.8,57.2,51.3z"/>
		<path class="st1" d="M64.7,51.9c0,0.1,0,0.2,0,0.3l0,0.2c0,0.1-0.1,0.2-0.1,0.2c-0.1,0.1-0.1,0.1-0.2,0.2c-0.1,0-0.2,0-0.3,0
			c-0.1,0-0.2,0-0.3,0c-0.1-0.1-0.2-0.1-0.3-0.2l-0.1-0.2c0-0.1,0-0.2,0-0.4v-0.2c0-0.1,0.1-0.2,0.2-0.2c0.1-0.1,0.1-0.1,0.2-0.2
			c0.1,0,0.2,0,0.3,0c0.1,0,0.2,0,0.3,0c0.1,0,0.2,0.1,0.3,0.2L64.7,51.9z"/>
		<path class="st1" d="M116,48.6c0,0.1,0,0.2-0.1,0.4c-0.2,0.5-0.7,0.7-1.2,0.5c-0.5-0.2-0.7-0.7-0.5-1.2c0.2-0.5,0.7-0.7,1.2-0.5
			C115.8,48,116,48.3,116,48.6z"/>
		<path class="st1" d="M98.5,47.3c-0.2,0.3-0.5,0.5-0.8,0.5c-0.1,0-0.3,0-0.4-0.1c0,0-0.1,0-0.2-0.1c-0.5-0.2-0.6-0.8-0.4-1.2
			C97,46,97.5,45.8,98,46c0,0,0.1,0,0.2,0.1C98.6,46.3,98.8,46.8,98.5,47.3z"/>
		<path class="st1" d="M101.6,39.2c-0.1,0.5-0.6,0.8-1,0.6c-0.3-0.2-0.5-0.6-0.4-1c0.1-0.4,0.6-0.7,1.1-0.6v0
			C101.5,38.5,101.7,38.8,101.6,39.2z"/>
		<path class="st1" d="M61.5,45.6c-0.1,0.3-0.4,0.4-0.6,0.4c-0.1,0-0.2,0-0.3,0c-0.3-0.2-0.5-0.6-0.4-0.9c0,0,0,0,0,0
			c0.1-0.3,0.5-0.5,0.9-0.4C61.5,44.8,61.7,45.2,61.5,45.6z"/>
		<path class="st1" d="M74.8,43.7c0,0.1,0,0.2,0,0.3l-0.1,0.2c0,0.1-0.1,0.1-0.1,0.2c0,0-0.1,0.1-0.2,0.1c-0.1,0-0.1,0-0.2,0
			c0,0-0.1,0-0.2,0c-0.1,0-0.2,0-0.2-0.1l-0.1-0.1v-0.6c0-0.1,0.1-0.2,0.1-0.2l0.1-0.1c0,0,0.1,0,0.1,0c0.1,0,0.1,0,0.2,0
			c0,0,0.1,0,0.1,0c0.1,0,0.2,0,0.2,0.1l0.1,0.1L74.8,43.7z"/>
		<path class="st1" d="M137.7,77.2c0,0.1,0,0.3,0,0.4l0,0.2c0,0.1-0.1,0.2-0.2,0.3c-0.1,0.1-0.2,0.1-0.3,0.2c-0.4,0.1-0.8,0-1-0.3
			l-0.1-0.2c0-0.1,0-0.3,0-0.4v-0.2c0.1-0.2,0.3-0.4,0.5-0.5c0.1,0,0.2,0,0.3,0c0.1,0,0.2,0,0.3,0c0.1,0.1,0.3,0.2,0.4,0.3
			L137.7,77.2z"/>
		<path class="st1" d="M131,72.7V73c0,0.1-0.1,0.1-0.2,0.1c0,0.1-0.1,0.1-0.1,0.1c-0.1,0-0.2,0.1-0.2,0.1h-0.3
			c-0.1,0-0.2-0.1-0.2-0.1c0,0-0.1-0.1-0.1-0.1c0-0.1,0-0.2,0-0.3v-0.3c0-0.1,0.1-0.2,0.2-0.2c0-0.1,0.1-0.1,0.1-0.1
			c0.1,0,0.2,0,0.2,0c0.2,0,0.4,0,0.5,0.2C130.9,72.5,131,72.6,131,72.7z"/>
		<path class="st1" d="M120,54L120,54c-0.1,0-0.2,0-0.3,0h-0.3c-0.1,0-0.2-0.1-0.3-0.1c-0.1-0.1-0.2-0.2-0.2-0.3
			c-0.1-0.2-0.1-0.3,0-0.5c0.1-0.2,0.2-0.3,0.4-0.4c0.1,0,0.2,0,0.3,0c0.1,0,0.2,0.1,0.3,0.2L120,53c0,0.1,0.1,0.1,0.1,0.2
			c0,0.1,0,0.2,0,0.2C120.2,53.6,120.2,53.9,120,54z"/>
		<path class="st1" d="M111.9,53.7L111.9,53.7c0,0.4-0.1,0.7-0.3,0.8c-0.1,0-0.2,0-0.3,0h-0.2c-0.2,0-0.3-0.1-0.5-0.2
			c-0.1-0.1-0.2-0.2-0.3-0.3c-0.1-0.1-0.1-0.2-0.1-0.3c0-0.4,0.2-0.7,0.6-0.7c0.1,0,0.3,0,0.4,0c0.2,0,0.3,0.1,0.4,0.2
			C111.8,53.3,111.9,53.5,111.9,53.7z"/>
		<path class="st1" d="M140.1,89.4l1.5-1.1h0.1v-0.1C147.3,75.3,130,62.2,127,60c0.6-0.7,1-1.5,1.3-2.3c0.5-2.4-1.2-5.1-2.5-7
			c-7.9-10.9-20.9-17.1-34.4-16.2c-2.9,0-5.8,0.6-8.4,1.9c-1.5,0.9-2.5,2.4-2.6,4.2c-3.9-0.7-25.2-4-30.5,8.9v0.1l0.2,1.8
			C29.8,58,25.2,79.8,25.2,80c-1,5.2,0.9,8.1,2.7,9.6c1,0.8,2.2,1.3,3.5,1.3c0.5,0,1-0.1,1.5-0.2l21.6-5.9c0.1,0.8,1,4.4,6.1,4.6
			L72,88.5c0.3,0.4,0.7,0.7,1,1c1.1,1.1,2.1,2.4,3.2,3.5c2.2,2.3,4.9,4.1,7.9,5.2c3.1,1.2,6.4,1.7,9.8,1.5c1.6,0.1,3.2,0,4.9-0.1
			l7.2,8.6c1.2,1.3,2.8,2,4.5,2.1c0.9,0,1.8-0.2,2.6-0.7l10.5,19.1c0.9,1.6,2.5,2.7,4.3,2.9h0.9c2.3,0,5.2-0.9,7.9-4.8
			C136.5,126.7,149.8,108.8,140.1,89.4z M32.6,89.4c-1.4,0.4-2.9,0.1-4-0.8c-1.6-1.3-3.2-3.8-2.3-8.4c0-0.2,4.4-21.2,24-27.7l4.1,31
			L32.6,89.4z M71.7,80.7c-0.4,2-1.3,4.5-0.5,6.5L60.6,88c-4.6-0.1-5-3.5-5-3.7l-4.5-34.7c5-11.7,25.6-8.6,29.1-8
			c0,0.5-0.1,1-0.2,1.5c-1.5,8-3,16.1-4.9,24C73.9,71.7,72.7,76.1,71.7,80.7z M95.4,98.6L95.4,98.6c-3.7,0.3-7.5-0.1-11-1.3
			c-4.6-2.1-8.6-5.3-11.5-9.4c-1.4-1.7-0.7-3.9-0.3-5.9c0.7-3.5,1.7-7.1,2.5-10.6c1.6-6.2,3-12.4,4.1-18.6c0.5-2.9,1.1-5.8,1.7-8.6
			c0.2-1.8,0.5-3.6,1-5.3c0.9-2,4-2.7,5.9-3c12.4-2,25,2.2,33.7,11.3c2.1,2,3.9,4.4,5.2,7c0.9,2,0.6,4.3-0.9,5.9
			c-1,1.3-1.9,2.7-2.8,4c-3.7,5.3-7.5,10.5-10.9,16c-1.9,3-3.7,6-5.6,9c-1.6,2.9-3.4,5.6-5.6,8.2C99.2,98.9,97.5,98.5,95.4,98.6z
			 M112.8,108.4c-0.2,0.1-2.9,2.2-6.1-0.9l-6.7-8.2c1.5-1,2.8-2.3,3.6-3.9c2.3-3.5,4.5-7.1,6.7-10.6c4.1-6.7,8.5-12.9,12.9-19.3
			c1-1.5,2.1-3,3.2-4.5c2.7,2,19.4,14.7,14.4,26.6L112.8,108.4z M135.5,126.2c-2.7,3.9-5.6,4.5-7.7,4.2c-1.4-0.2-2.7-1-3.3-2.3
			L113.9,109l25.3-18.9C148.3,108.7,135.6,126,135.5,126.2z"/>
		<path class="st1" d="M54.3,83.5l-21.7,5.9c-1.4,0.4-2.9,0.1-4-0.8c-1.6-1.3-3.2-3.8-2.3-8.4c0-0.2,4.4-21.2,24-27.7L54.3,83.5z"/>
		<path class="st1" d="M51.1,49.6l4.5,34.7c0,0.2,0.4,3.6,5,3.7l10.6-0.7c-0.8-2,0.1-4.5,0.5-6.5c1-4.6,2.2-9.1,3.4-13.6
			c1.9-7.9,3.5-16,4.9-24c0.1-0.5,0.2-1,0.2-1.5C76.7,40.9,56.1,37.9,51.1,49.6z M57.2,51.3c-0.2,0.6-0.9,0.8-1.4,0.6
			c-0.5-0.2-0.8-0.9-0.6-1.4c0.2-0.5,0.9-0.8,1.4-0.6C57.2,50.1,57.5,50.8,57.2,51.3z M61.5,45.6c-0.1,0.3-0.4,0.4-0.6,0.4
			c-0.1,0-0.2,0-0.3,0c-0.3-0.2-0.5-0.6-0.4-0.9c0,0,0,0,0,0c0.1-0.3,0.5-0.5,0.9-0.4C61.5,44.8,61.7,45.2,61.5,45.6z M64.7,52.3
			l0,0.2c0,0.1-0.1,0.2-0.1,0.2c-0.1,0.1-0.1,0.1-0.2,0.2c-0.1,0-0.2,0-0.3,0c-0.1,0-0.2,0-0.3,0c-0.1-0.1-0.2-0.1-0.3-0.2l-0.1-0.2
			c0-0.1,0-0.2,0-0.4v-0.2c0-0.1,0.1-0.2,0.2-0.2c0.1-0.1,0.1-0.1,0.2-0.2c0.1,0,0.2,0,0.3,0c0.1,0,0.2,0,0.3,0
			c0.1,0,0.2,0.1,0.3,0.2l0.1,0.2C64.7,52.1,64.7,52.2,64.7,52.3z M67.9,46.2l0,0.2c0,0.1-0.1,0.2-0.2,0.2c-0.1,0.1-0.1,0.1-0.2,0.2
			h-0.2c-0.1,0-0.2,0-0.3,0h-0.2c-0.1-0.1-0.2-0.2-0.3-0.3l-0.1-0.2c0-0.2,0-0.3,0-0.5v-0.2c0-0.1,0.1-0.2,0.2-0.3
			c0.1-0.1,0.2-0.2,0.3-0.2c0.1,0,0.2,0,0.3,0c0.1,0,0.2,0,0.4,0c0.1,0.1,0.3,0.2,0.3,0.3c0.1,0.1,0.2,0.2,0.2,0.3v0.1
			C67.9,46,67.9,46.1,67.9,46.2z M74.2,44.5c0,0-0.1,0-0.2,0c-0.1,0-0.2,0-0.2-0.1l-0.1-0.1v-0.6c0-0.1,0.1-0.2,0.1-0.2l0.1-0.1
			c0,0,0.1,0,0.1,0c0.1,0,0.1,0,0.2,0c0,0,0.1,0,0.1,0c0.1,0,0.2,0,0.2,0.1l0.1,0.1l0.1,0.1c0,0.1,0,0.2,0,0.3l-0.1,0.2
			c0,0.1-0.1,0.1-0.1,0.2c0,0-0.1,0.1-0.2,0.1C74.3,44.5,74.3,44.5,74.2,44.5z M76.3,48.8v0.3c0,0.1-0.1,0.2-0.2,0.3
			c-0.1,0.1-0.2,0.2-0.3,0.2c-0.1,0-0.2,0-0.4,0c-0.1,0-0.3,0-0.4,0c-0.2-0.1-0.3-0.2-0.4-0.3l-0.1-0.2c0-0.2,0-0.3,0-0.5v-0.2
			c0-0.1,0.1-0.2,0.2-0.3c0.1-0.1,0.2-0.2,0.3-0.2c0.2-0.1,0.5-0.1,0.7,0c0.2,0.1,0.3,0.2,0.4,0.3l0.1,0.2
			C76.4,48.5,76.4,48.7,76.3,48.8z"/>
		<path class="st1" d="M135.5,126.2c-2.7,3.9-5.6,4.5-7.7,4.2c-1.4-0.2-2.7-1-3.3-2.3L113.9,109l25.3-18.9
			C148.3,108.7,135.6,126,135.5,126.2z"/>
		<path class="st1" d="M126.4,61c-1.1,1.5-2.2,3-3.2,4.5c-4.4,6.4-8.8,12.6-12.9,19.3c-2.2,3.6-4.4,7.1-6.7,10.6
			c-0.8,1.6-2.1,2.9-3.6,3.9l6.7,8.2c3.2,3.2,5.9,1,6.1,0.9l28-20.9C145.8,75.7,129.2,63,126.4,61z M126,68.6c0,0.2-0.1,0.4-0.3,0.6
			h-0.2c-0.1,0-0.2,0-0.4,0c-0.1,0-0.2,0-0.2,0c-0.1,0-0.3-0.1-0.4-0.2l-0.2-0.2l-0.1-0.2v-0.8c0.1-0.1,0.1-0.2,0.2-0.3
			c0.1-0.1,0.1-0.1,0.2-0.2c0.1,0,0.2-0.1,0.2-0.1c0.2,0,0.3,0,0.5,0c0.1,0,0.3,0.1,0.4,0.2l0.2,0.2l0.1,0.2V68
			C126.1,68.2,126.1,68.4,126,68.6z M130,78.8c0,0.1-0.1,0.2-0.2,0.3c-0.1,0.1-0.2,0.1-0.3,0.2c-0.2,0.1-0.5,0.1-0.7,0
			c-0.1-0.1-0.3-0.2-0.3-0.3l-0.1-0.2c0-0.1,0-0.3,0-0.4v-0.2c0-0.1,0.1-0.2,0.2-0.3c0.2-0.2,0.4-0.2,0.6-0.2c0.1,0,0.2,0,0.3,0
			c0.1,0.1,0.3,0.2,0.4,0.3l0.1,0.2c0,0.2,0,0.3,0,0.5L130,78.8z M131,73c0,0.1-0.1,0.1-0.2,0.1c0,0.1-0.1,0.1-0.1,0.1
			c-0.1,0-0.2,0.1-0.2,0.1h-0.3c-0.1,0-0.2-0.1-0.2-0.1c0,0-0.1-0.1-0.1-0.1c0-0.1,0-0.2,0-0.3v-0.3c0-0.1,0.1-0.2,0.2-0.2
			c0-0.1,0.1-0.1,0.1-0.1c0.1,0,0.2,0,0.2,0c0.2,0,0.4,0,0.5,0.2c0.1,0.1,0.1,0.2,0.1,0.3V73z M135.3,71.3c-0.1,0.2-0.2,0.4-0.4,0.5
			c-0.2,0.2-0.5,0.2-0.8,0.1c-0.3-0.1-0.4-0.4-0.5-0.7c0-0.2,0-0.4,0.1-0.6c0.1-0.2,0.2-0.4,0.5-0.5c0.2-0.1,0.4-0.1,0.6,0
			c0.2,0.1,0.4,0.2,0.4,0.5C135.4,70.9,135.4,71.1,135.3,71.3z M136.2,78.1l-0.1-0.2c0-0.1,0-0.3,0-0.4v-0.2
			c0.1-0.2,0.3-0.4,0.5-0.5c0.1,0,0.2,0,0.3,0c0.1,0,0.2,0,0.3,0c0.1,0.1,0.3,0.2,0.4,0.3l0.1,0.2c0,0.1,0,0.3,0,0.4l0,0.2
			c0,0.1-0.1,0.2-0.2,0.3c-0.1,0.1-0.2,0.1-0.3,0.2C136.9,78.5,136.5,78.4,136.2,78.1z M139.5,83.2l0,0.4c-0.1,0.2-0.2,0.3-0.3,0.4
			c-0.1,0.1-0.2,0.2-0.4,0.3c-0.2,0-0.3,0-0.5,0c-0.2,0-0.3,0-0.5-0.1c-0.2-0.1-0.4-0.2-0.5-0.4l-0.2-0.3c-0.1-0.2-0.1-0.4-0.1-0.6
			l0.1-0.3c0-0.2,0.2-0.3,0.3-0.4c0.1-0.1,0.2-0.2,0.4-0.3c0.2-0.1,0.3-0.1,0.5-0.1c0.2,0,0.3,0,0.5,0.1c0.2,0.1,0.4,0.2,0.5,0.4
			l0.2,0.3C139.6,82.8,139.6,83,139.5,83.2z"/>
		<path class="st1" d="M126.7,54.1c-1.3-2.6-3.1-5-5.2-7c-8.7-9.1-21.3-13.3-33.7-11.3c-1.9,0.3-5,1-5.9,3c-0.5,1.7-0.8,3.5-1,5.3
			c-0.6,2.9-1.2,5.7-1.7,8.6c-1.1,6.3-2.6,12.4-4.1,18.6c-0.8,3.5-1.8,7-2.5,10.6c-0.4,2-1.1,4.2,0.3,5.9c3,4.1,7,7.3,11.5,9.4
			c3.5,1.2,7.3,1.7,11,1.4l0,0c2.1-0.1,3.8,0.3,5.4-1.3c2.1-2.5,4-5.3,5.6-8.2c1.9-3,3.7-6,5.6-9c3.4-5.5,7.2-10.7,10.9-16
			c0.9-1.3,1.8-2.7,2.8-4C127.2,58.4,127.6,56.1,126.7,54.1z M90,48.3c0,0.1-0.1,0.2-0.2,0.3c-0.1,0.1-0.2,0.2-0.3,0.2
			c-0.2,0.1-0.5,0.1-0.8,0c-0.5-0.2-0.7-0.8-0.5-1.3c0-0.1,0.1-0.2,0.2-0.3c0.1-0.1,0.2-0.2,0.3-0.2c0.2-0.1,0.5-0.1,0.8,0
			c0.2,0.1,0.4,0.3,0.5,0.5C90.1,47.8,90.1,48.1,90,48.3z M92.8,41.4c-0.1,0.1-0.2,0.3-0.3,0.4c-0.1,0.1-0.2,0.1-0.3,0.2
			c-0.1,0-0.2,0-0.3,0c-0.1,0-0.2-0.1-0.3-0.1c-0.1-0.1-0.2-0.1-0.3-0.2L91,41.4v0c-0.2-0.5,0-1,0.5-1.2c0.2-0.1,0.5-0.1,0.7,0
			c0.2,0.1,0.3,0.2,0.4,0.3l0.1,0.2c0.1,0.2,0.1,0.4,0,0.5L92.8,41.4z M98.5,47.3c-0.2,0.3-0.5,0.5-0.8,0.5c-0.1,0-0.3,0-0.4-0.1
			c0,0-0.1,0-0.2-0.1c-0.5-0.2-0.6-0.8-0.4-1.2C97,46,97.5,45.8,98,46c0,0,0.1,0,0.2,0.1C98.6,46.3,98.8,46.8,98.5,47.3z
			 M101.6,39.2c-0.1,0.5-0.6,0.8-1,0.6c-0.3-0.2-0.5-0.6-0.4-1c0.1-0.4,0.6-0.7,1.1-0.6v0C101.5,38.5,101.7,38.8,101.6,39.2z
			 M105.4,53.2c0,0.2,0,0.4-0.1,0.5c-0.2,0.2-0.4,0.3-0.7,0.4c-0.1,0-0.3,0-0.4,0c-0.1,0-0.3-0.1-0.4-0.2l-0.2-0.2
			c-0.2-0.2-0.2-0.5-0.2-0.8c0-0.3,0.2-0.5,0.4-0.7c0.2-0.2,0.5-0.2,0.8-0.2c0.3,0,0.5,0.2,0.7,0.4c0.1,0.1,0.1,0.2,0.1,0.2
			C105.5,52.9,105.5,53.1,105.4,53.2z M107.3,45.1c-0.2,0.5-0.7,0.7-1.2,0.5c-0.5-0.2-0.7-0.7-0.5-1.2c0.2-0.5,0.7-0.7,1.2-0.5
			c0.4,0.1,0.6,0.5,0.6,0.8C107.3,44.9,107.3,45,107.3,45.1z M111.9,53.8c0,0.3-0.1,0.6-0.3,0.7c-0.1,0-0.2,0-0.3,0h-0.2
			c-0.2,0-0.3-0.1-0.5-0.2c-0.1-0.1-0.2-0.2-0.3-0.3c-0.1-0.1-0.1-0.2-0.1-0.3c0-0.4,0.2-0.7,0.6-0.7c0.1,0,0.3,0,0.4,0
			c0.2,0,0.3,0.1,0.4,0.2C111.8,53.3,111.9,53.5,111.9,53.8L111.9,53.8z M114.7,49.5c-0.5-0.2-0.7-0.7-0.5-1.2
			c0.2-0.5,0.7-0.7,1.2-0.5c0.3,0.1,0.5,0.5,0.5,0.8c0,0.1,0,0.2-0.1,0.4C115.7,49.5,115.2,49.7,114.7,49.5z M116.2,59.2
			c-0.2,0-0.3,0-0.5,0c-0.2-0.1-0.3-0.2-0.4-0.3c-0.1-0.1-0.2-0.3-0.2-0.4c0-0.2,0-0.3,0-0.5c0.1-0.2,0.2-0.3,0.3-0.4
			c0.1-0.1,0.3-0.2,0.4-0.2c0.2,0,0.3,0,0.5,0c0.1,0.1,0.3,0.2,0.4,0.3c0.2,0.2,0.2,0.4,0.3,0.6C117,58.8,116.6,59.1,116.2,59.2z
			 M120,54L120,54c-0.1,0-0.2,0-0.3,0h-0.3c-0.1,0-0.2-0.1-0.3-0.1c-0.1-0.1-0.2-0.2-0.2-0.3c-0.1-0.2-0.1-0.3,0-0.5
			c0.1-0.2,0.2-0.3,0.4-0.4c0.1,0,0.2,0,0.3,0c0.1,0,0.2,0.1,0.3,0.2L120,53c0,0.1,0.1,0.1,0.1,0.2c0,0.1,0,0.2,0,0.2
			C120.2,53.6,120.2,53.9,120,54z"/>
	</g>
</g>
</svg>
