<svg xmlns="http://www.w3.org/2000/svg" viewBox="0 0 173.73 173.73"><defs><style>.cls-1{fill:none;stroke:#fff;stroke-miterlimit:10;stroke-width:2px;}.cls-2{fill:#fff;}</style></defs><g id="Layer_2" data-name="Layer 2"><g id="Layer_1-2" data-name="Layer 1"><circle class="cls-1" cx="86.87" cy="86.87" r="85.87"/><path class="cls-2" d="M67.86,46.22a.68.68,0,0,0,0-.4v-.1a.6.6,0,0,0-.2-.27.67.67,0,0,0-.33-.29.69.69,0,0,0-.35,0,.65.65,0,0,0-.34,0,.83.83,0,0,0-.28.21.74.74,0,0,0-.21.28v.22a.86.86,0,0,0,0,.45l.12.2a1.21,1.21,0,0,0,.35.29h.24a.62.62,0,0,0,.33,0h.21a.55.55,0,0,0,.23-.17.58.58,0,0,0,.18-.23Z"/><path class="cls-2" d="M76.34,48.83a.79.79,0,0,0,0-.48l-.13-.22a1,1,0,0,0-.4-.32,1,1,0,0,0-.74,0,.73.73,0,0,0-.3.22.65.65,0,0,0-.22.3v.25a1,1,0,0,0,0,.49l.13.22a.94.94,0,0,0,.39.32.86.86,0,0,0,.39,0,.73.73,0,0,0,.36,0,.81.81,0,0,0,.31-.21.66.66,0,0,0,.21-.31Z"/><path class="cls-2" d="M90,47.59a1.11,1.11,0,0,0-.54-.55,1,1,0,0,0-.77,0,.87.87,0,0,0-.32.22.74.74,0,0,0-.22.32,1,1,0,0,0,1.31,1.32.87.87,0,0,0,.32-.22.69.69,0,0,0,.23-.33A1,1,0,0,0,90,47.59Z"/><path class="cls-2" d="M92.73,41.18a.67.67,0,0,0,0-.52l-.1-.2a1,1,0,0,0-.38-.31,1,1,0,0,0-.71,0,.92.92,0,0,0-.5,1.21l.12.2a.81.81,0,0,0,.28.24.83.83,0,0,0,.34.13.69.69,0,0,0,.35,0,.63.63,0,0,0,.32-.15,1,1,0,0,0,.3-.39Z"/><path class="cls-2" d="M106.79,43.94a.9.9,0,1,0,.5,1.17A.9.9,0,0,0,106.79,43.94Z"/><path class="cls-2" d="M116.71,57.77a.89.89,0,0,0-.38-.31.94.94,0,0,0-.47,0,1,1,0,0,0-.42.17.87.87,0,0,0-.29.37.86.86,0,0,0,0,.45.87.87,0,0,0,.17.42.93.93,0,0,0,.39.29.79.79,0,0,0,.48,0,.8.8,0,0,0,.52-1.39Z"/><path class="cls-2" d="M105.43,53.23a.9.9,0,0,0,0-.46.44.44,0,0,0-.13-.25,1.14,1.14,0,0,0-.7-.42,1.15,1.15,0,0,0-.77.2,1.13,1.13,0,0,0-.41.71,1,1,0,0,0,.2.77l.19.18a.82.82,0,0,0,.37.19.75.75,0,0,0,.42,0,1.24,1.24,0,0,0,.68-.39A1,1,0,0,0,105.43,53.23Z"/><path class="cls-2" d="M126.06,68v-.19l-.13-.21-.17-.19a1.14,1.14,0,0,0-.37-.17,1.06,1.06,0,0,0-.5,0,.7.7,0,0,0-.23.11.51.51,0,0,0-.21.15.79.79,0,0,0-.23.31v.76l.13.22.17.18a.7.7,0,0,0,.37.17.53.53,0,0,0,.25,0,.77.77,0,0,0,.37,0h.17a.82.82,0,0,0,.3-.55A.81.81,0,0,0,126.06,68Z"/><path class="cls-2" d="M135.33,71.31a.88.88,0,0,0,0-.64.73.73,0,0,0-.44-.45.77.77,0,0,0-.63,0,.85.85,0,0,0-.46.45,1,1,0,0,0-.13.62.83.83,0,0,0,.49.65.81.81,0,0,0,.82-.1A1.06,1.06,0,0,0,135.33,71.31Z"/><path class="cls-2" d="M129.93,78.53a.86.86,0,0,0,0-.45l-.11-.19a.84.84,0,0,0-.36-.28.47.47,0,0,0-.33,0,.73.73,0,0,0-.59.23.61.61,0,0,0-.2.29v.21a1.09,1.09,0,0,0,0,.44l.12.2a.85.85,0,0,0,.35.27.86.86,0,0,0,.67,0,.71.71,0,0,0,.27-.18,1.05,1.05,0,0,0,.2-.27Z"/><path class="cls-2" d="M139.55,83.19a1.16,1.16,0,0,0,0-.64l-.16-.27a1.2,1.2,0,0,0-.52-.4,1,1,0,0,0-.49-.1,1.26,1.26,0,0,0-.47.08,1.05,1.05,0,0,0-.39.27.92.92,0,0,0-.28.42l-.1.32a1.55,1.55,0,0,0,.08.64l.17.26a1.24,1.24,0,0,0,.5.41,1.16,1.16,0,0,0,.49.1,1.35,1.35,0,0,0,.49,0,1.1,1.1,0,0,0,.38-.27,1,1,0,0,0,.29-.4Z"/><path class="cls-2" d="M56.65,49.91a1.09,1.09,0,1,0,.58,1.43,1.09,1.09,0,0,0-.58-1.43Z"/><path class="cls-2" d="M64.68,52.29a.69.69,0,0,0,0-.35l-.1-.16a.66.66,0,0,0-.29-.23.57.57,0,0,0-.26,0,.62.62,0,0,0-.27,0,.48.48,0,0,0-.22.15.46.46,0,0,0-.17.24v.16a.77.77,0,0,0,0,.37l.09.15a.89.89,0,0,0,.3.24.62.62,0,0,0,.27,0,.57.57,0,0,0,.26,0,.71.71,0,0,0,.22-.15.61.61,0,0,0,.15-.24Z"/><path class="cls-2" d="M115.46,47.81a.91.91,0,1,0,.48,1.19.91.91,0,0,0-.48-1.19Z"/><path class="cls-2" d="M98,46a.91.91,0,1,0-.68,1.68h0A.91.91,0,1,0,98,46Z"/><path class="cls-2" d="M101.21,38.24a.86.86,0,0,0-1.06.59.85.85,0,0,0,.39,1,.86.86,0,0,0,.67-1.56Z"/><path class="cls-2" d="M61.16,44.66a.68.68,0,0,0-.9.37.69.69,0,0,0,.36.91.69.69,0,0,0,.54-1.28Z"/><path class="cls-2" d="M74.84,44a.61.61,0,0,0,0-.27l-.09-.13-.1-.12a.67.67,0,0,0-.23-.1.38.38,0,0,0-.15,0,.48.48,0,0,0-.17,0,.33.33,0,0,0-.14,0l-.13.1a.49.49,0,0,0-.13.2v.61l.11.11a.32.32,0,0,0,.22.1.25.25,0,0,0,.17,0,.45.45,0,0,0,.23,0,.34.34,0,0,0,.17-.11.41.41,0,0,0,.13-.19Z"/><path class="cls-2" d="M137.71,77.67a1,1,0,0,0,0-.43l-.12-.19a.74.74,0,0,0-.35-.28.65.65,0,0,0-.34,0,.81.81,0,0,0-.31,0,1,1,0,0,0-.47.45v.24a.79.79,0,0,0,0,.43l.1.19a.85.85,0,0,0,1,.28.61.61,0,0,0,.27-.18,1.05,1.05,0,0,0,.2-.27Z"/><path class="cls-2" d="M131,72.85v-.17a.69.69,0,0,0-.14-.3.55.55,0,0,0-.55-.22.49.49,0,0,0-.24,0,.26.26,0,0,0-.13.1.66.66,0,0,0-.15.22v.33a.57.57,0,0,0,0,.26.26.26,0,0,0,.1.13.54.54,0,0,0,.22.15h.33a1,1,0,0,0,.25-.08.41.41,0,0,0,.14-.12A.43.43,0,0,0,131,73Z"/><path class="cls-2" d="M120.1,53.43a.81.81,0,0,0,0-.22A.7.7,0,0,0,120,53l-.14-.11a.5.5,0,0,0-.32-.15.62.62,0,0,0-.33,0,.65.65,0,0,0-.37.36.74.74,0,0,0,0,.51.67.67,0,0,0,.22.28.71.71,0,0,0,.32.14h.35a.34.34,0,0,0,.2,0H120a.47.47,0,0,0,.09-.62Z"/><path class="cls-2" d="M111.92,53.68a.73.73,0,0,0-.27-.47,1.35,1.35,0,0,0-.42-.2.86.86,0,0,0-.45,0,.65.65,0,0,0-.55.74.86.86,0,0,0,.11.28,1.62,1.62,0,0,0,.32.32,1.9,1.9,0,0,0,.46.15h.18a.61.61,0,0,0,.27,0,.74.74,0,0,0,.35-.72Z"/><path class="cls-2" d="M140.09,89.4l1.51-1.12h.11v-.15C147.29,75.31,130,62.19,127,60a5.94,5.94,0,0,0,1.26-2.31c.52-2.38-1.22-5.13-2.53-7A39.46,39.46,0,0,0,91.37,34.44,19.22,19.22,0,0,0,83,36.33a5.28,5.28,0,0,0-2.6,4.16c-3.87-.72-25.24-4-30.48,8.88v.14l.23,1.77C29.77,58,25.23,79.77,25.18,80c-1,5.21.92,8.09,2.73,9.59a5.58,5.58,0,0,0,3.54,1.27A5.16,5.16,0,0,0,33,90.61l21.57-5.93c.13.82,1,4.44,6.13,4.57L72,88.52c.32.35.67.68,1,1,1.1,1.1,2.06,2.36,3.17,3.48a22,22,0,0,0,7.91,5.22,24.17,24.17,0,0,0,9.75,1.5,41.5,41.5,0,0,0,4.86-.1l7.17,8.62a6.31,6.31,0,0,0,4.51,2.09,5.22,5.22,0,0,0,2.58-.69l10.49,19.06a5.63,5.63,0,0,0,4.29,2.88h.87c2.26,0,5.23-.94,7.88-4.76.06-.13,13.32-18,3.6-37.44Zm-107.5,0a4.38,4.38,0,0,1-4-.83c-1.56-1.29-3.24-3.81-2.33-8.38,0-.22,4.44-21.22,24-27.74l4.07,31Zm28-1.4c-4.57-.12-5-3.52-5-3.71l-4.48-34.7c5-11.73,25.59-8.65,29.14-8A8.44,8.44,0,0,1,80,43.1c-1.49,8-3,16.11-4.94,24.05-1.13,4.53-2.32,9-3.36,13.59-.43,2-1.29,4.53-.48,6.55ZM95.4,98.59a27.75,27.75,0,0,1-11-1.36,29.57,29.57,0,0,1-11.54-9.37c-1.39-1.67-.72-3.92-.3-5.91.73-3.54,1.67-7.06,2.51-10.56,1.56-6.18,3-12.35,4.14-18.63.5-2.89,1.11-5.75,1.67-8.62a26.4,26.4,0,0,1,1-5.29c.91-2,4-2.7,5.87-3a38.22,38.22,0,0,1,33.73,11.28,25.32,25.32,0,0,1,5.2,7,5.3,5.3,0,0,1-.94,5.9c-1,1.31-1.88,2.65-2.82,4-3.67,5.31-7.49,10.52-10.92,16-1.9,3-3.72,6-5.6,9a52.08,52.08,0,0,1-5.55,8.18c-1.67,1.69-3.35,1.25-5.44,1.34Zm11.26,8.88L100,99.31a10.32,10.32,0,0,0,3.61-3.87c2.34-3.49,4.52-7.07,6.7-10.63,4.09-6.7,8.51-12.93,12.94-19.32,1-1.52,2.09-3,3.18-4.54,2.72,2,19.36,14.71,14.36,26.56l-28,20.9C112.57,108.51,109.89,110.62,106.66,107.47Zm28.8,18.72c-2.68,3.89-5.64,4.45-7.67,4.24a4.4,4.4,0,0,1-3.35-2.28L113.88,109l25.27-18.88C148.33,108.73,135.61,126,135.46,126.19Z"/></g></g></svg>